<svg xmlns="http://www.w3.org/2000/svg" width="22.9964cm" height="3.2273cm" viewBox="0 0 651.8663 91.4838"><defs><style>.a{fill:#2d2e65;fill-rule:evenodd;}.b{fill:#e88d19;}</style></defs><path class="a" d="M359.82,324.3853V316.81c0-5.0863.6193-8.0677,2.8544-9.9254,2.4828-2.1111,6.083-1.2444,6.083-4.0984,0-1.4892-1.1145-2.1116-3.1022-2.1116-1.6156,0-6.705.87-15.6394.87-7.3243,0-12.9118-1.1144-16.5125-1.1144-2.1081,0-3.1017.74-3.1017,2.48,0,2.854,2.48,1.9872,6.5815,2.9808,5.7084,1.3623,7.9433,4.0958,7.9433,11.42,0,6.579-1.1174,11.17-2.3619,12.9093-2.6036,3.48-9.9249,6.95-18.3668,6.95-17.2615,0-29.1737-16.5064-29.1737-42.6988,0-22.9673,11.9122-36.6194,28.6751-36.6194,12.1635,0,24.7037,7.9438,29.295,17.2554,3.5972,7.3183,2.4828,10.0519,5.089,10.0519,1.7369,0,2.1115-.619,2.1115-2.7336,0-1.3622-.4985-4.9625-.4985-10.5469,0-6.6995.4985-10.4266.4985-11.544,0-1.8634-.6194-2.7306-1.74-2.7306-2.232,0-1.4891,2.9782-4.8416,2.9782-4.2193,0-13.6522-7.82-30.1612-7.82-25.0754,0-44.4389,20.9765-44.4389,49.28,0,24.9485,16.2614,41.3367,40.337,41.3367,9.3146,0,21.3543-3.1043,34.2631-9.559,4.35-2.2349,6.3307-2.4827,6.3307-5.34C359.944,327.6105,359.82,326.2456,359.82,324.3853Zm25.1508-49.776v48.6615c0,5.7079-1.4922,9.43-4.9685,11.667-3.0991,1.8613-5.7088,1.9881-5.7088,4.8386,0,1.3658.994,2.2351,2.9783,2.2351,2.3619,0,9.0612-1.1171,19.6142-1.1171,9.4386,0,17.2524,1.1171,23.2116,1.1171,7.696,0,12.9119-2.1081,16.3883-7.0737,3.1026-4.4726,4.8385-10.9246,4.8385-13.5308,0-1.4891-.7423-2.4827-1.7359-2.4827-2.4862,0-2.4862,4.3465-7.82,8.81-5.0925,4.3456-13.7756,7.203-22.0936,7.203-9.3121,0-9.9341-2.6061-9.9341-11.42V304.1546c0-5.0894.622-6.9532,5.2129-6.9532h4.842c7.2006,0,10.553,1.2414,12.5373,6.4517,1.4925,4.1017.2477,7.0735,3.3529,7.0735,1.3649,0,2.1081-.74,2.1081-2.3558a157.9111,157.9111,0,0,1-.991-16.1349c0-5.7114.4956-8.69.4956-9.4355,0-1.7369-.4956-2.6066-1.9848-2.6066-2.9808,0-2.9808,3.8509-5.34,7.0766-2.48,3.223-5.5845,4.2166-10.9216,4.2166H405.08c-3.851,0-5.34-1.483-5.34-5.2072V266.9133c0-5.4611,2.73-7.2,10.0549-7.2,12.293,0,18.1217,1.7394,20.7314,7.0735,1.7369,3.7272-.1235,7.2006,3.2261,7.2006,1.74,0,1.9872-.619,1.9872-2.4828,0-.87-.1235-4.467-.1235-10.5469v-2.61c0-4.0958-.7458-4.4674-4.9655-4.4674-5.4635,0-17.1315.994-35.13.994-13.2805,0-20.3541-.994-21.4716-.994-2.1145,0-3.2321.994-3.2321,2.6066,0,4.0957,6.3308,1.2384,10.8008,5.3341C384.8472,264.8052,384.971,268.5233,384.971,274.6093Zm87.7507,14.2771V268.8975c0-6.8229.9936-9.9281,7.5726-9.9281,12.6607,0,20.2358,8.0677,20.2358,21.1035,0,11.2933-5.9617,14.77-18.246,14.77C473.3441,294.8425,472.7217,293.8459,472.7217,288.8864Zm-15.2651-14.2771v48.6615c0,5.7079-1.4917,9.43-4.9655,11.667-3.1043,1.8613-5.708,1.9881-5.708,4.8386,0,1.3658.99,2.2351,2.9783,2.2351,2.73,0,8.6862-1.1171,17.0072-1.1171,7.5665,0,12.5346,1.1171,14.8905,1.1171,2.1081,0,2.9808-.619,2.9808-2.73,0-3.2321-3.7241-2.4827-6.6989-3.9719-3.8537-1.9846-5.4637-5.9591-5.4637-12.4173V304.65c0-3.4794,1.238-4.3462,5.2073-4.3462,3.9745,0,6.705,0,9.0669,2.1112,2.1081,1.8608,4.8386,7.6929,9.3086,17.005,7.4483,15.2678,13.0327,22.2179,21.1009,22.2179,6.7015,0,13.1621-3.4738,13.1621-6.452,0-1.2439-.498-1.7369-1.7359-1.7369-.7528,0-1.8673.2512-3.2321.2512-3.8485,0-5.8322-2.6131-8.9374-8.1976l-12.5346-23.2145c-1.238-2.3559-2.3585-4.2222-4.3492-5.21,10.9247-3.5972,16.14-10.0544,16.14-19.9855,0-14.7726-10.1788-23.3384-29.05-23.3384-8.3124,0-16.0136,1.12-22.8368,1.12-9.0609,0-14.528-.87-16.138-.87-1.9846,0-3.1017.87-3.1017,2.4828,0,3.9719,5.8323,1.3653,9.8006,5.3341C457.33,264.6782,457.4566,268.5233,457.4566,274.6093ZM545.02,324.0132c-2.4767,5.5854-4.3431,9.3121-7.6925,11.5445-2.4828,1.6125-5.2159,1.3682-5.2159,3.9684,0,1.6161.9936,2.4854,2.7331,2.4854,1.3682,0,4.842-1.1171,10.7951-1.1171,7.949,0,13.41,1.2414,16.02,1.2414,1.8577,0,2.854-.8668,2.854-2.61,0-1.9847-1.99-2.2324-4.9681-2.854-5.7088-1.1144-8.5628-3.3468-8.5628-7.0735a12.0371,12.0371,0,0,1,.9936-4.22l3.3529-9.433c1.9839-5.3371,4.0928-5.3371,9.6833-5.3371h17.5c4.968,0,6.4512.2478,8.5653,5.3371l3.4738,8.3125a14.1393,14.1393,0,0,1,1.2379,5.4636c0,7.4482-8.9374,6.2069-8.9374,9.6867,0,1.4857.8737,2.6028,1.9907,2.6028A112.4534,112.4534,0,0,1,604.61,340.77c8.315,0,14.2681,1.1179,17.5,1.1179,1.736,0,2.235-.25,2.235-2.3619,0-2.6-1.2414-2.3559-4.5944-3.4764-3.9683-1.3622-5.7087-3.8424-7.4448-7.9377l-31.6568-73.9841c-.625-1.3653-1.4892-2.232-2.3593-2.232-1.2414,0-1.4857.6194-1.9839,1.7338Zm22.1005-19.6143c-3.9753,0-5.5845-.2443-5.5845-1.8573a9.89,9.89,0,0,1,.8668-3.1082l9.3086-21.8463c.498-1.2413,1.2414-1.86,1.8638-1.86.498,0,1.2379.7458,1.86,2.3558l8.8131,20.9826a14.3578,14.3578,0,0,1,1.1179,3.7211c0,.9936-1.2387,1.6126-3.9745,1.6126Zm72.3953,4.0988c0,14.0263-1.4917,22.4656-3.7267,25.2022-2.8548,3.5938-8.0647,2.4767-8.0647,5.3341,0,1.86.74,2.9775,2.3559,2.9775,2.1107,0,6.8258-1.1171,14.0263-1.1171,6.7025,0,11.0456,1.2414,13.0328,1.2414,2.3558,0,3.23-.2478,3.23-2.61,0-4.0927-7.3248-1.7334-11.049-5.461-3.9745-4.0928-4.0953-12.2869-4.0953-25.3227V279.8251q0-5.219,1.4857-5.2158a7.0919,7.0919,0,0,1,2.9843,2.3559l51.0139,60.3285c2.9783,3.4764,4.5909,5.8322,6.95,5.8322,1.1171,0,1.6161-1.7334,1.6161-5.21l.7459-62.9357c.1208-7.1975.3711-11.2932,4.2161-14.2711,3.1052-2.4858,6.3339-1.613,6.3339-4.5969,0-1.7369-.7434-2.2324-2.4828-2.2324-3.3529,0-8.6922.994-15.3886.994-4.969,0-9.0643-.87-12.0452-.87-1.8638,0-2.7305.7434-2.7305,2.2324,0,3.4765,4.9621,1.3679,10.9246,5.2159,4.2163,2.7305,4.8387,7.9438,4.8387,15.513v31.6594c0,3.9719-.4921,5.9565-1.7369,5.9565-.8693,0-2.6036-1.2413-4.9656-4.0987l-42.6988-51.2652c-3.353-3.9688-4.2223-5.2133-7.6961-5.2133-3.3555,0-6.9527.6164-10.6769.6164-2.7331,0-5.2132-.6164-7.4483-.6164-1.7394,0-2.48.4956-2.48,2.6037,0,4.2226,4.9629.4955,9.805,5.467,2.73,2.7306,3.7267,7.6961,3.7267,15.2648Zm99.5158-55.1459a7.8878,7.8878,0,0,0-7.8894,7.8863,7.86,7.86,0,0,0,7.708,7.8437,7.6209,7.6209,0,0,0,5.569-2.1625,7.8546,7.8546,0,0,0,.221-11.2A7.8607,7.8607,0,0,0,739.0319,253.3518Zm6.7714,7.8863a6.8822,6.8822,0,0,1-2.0115,4.83,6.7492,6.7492,0,0,1-9.5658,0,6.8113,6.8113,0,1,1,9.5658-9.6989A7.0841,7.0841,0,0,1,745.8033,261.2381Zm-6.5272-4.558H734.921v.5318c.96.07,1.2258.2926,1.2258,1.0571v5.6751c0,.7583-.2866,1.0057-1.2258,1.0479v.5137h4.24v-.5137c-.8909-.09-1.1809-.3107-1.1809-1.0479v-2.6852h.2684a1.8216,1.8216,0,0,1,1.9908,1.5888c.16.695-.045,1.5405.378,2.235a1.6362,1.6362,0,0,0,1.4555.6254,1.6777,1.6777,0,0,0,1.8543-1.9v-.2443H743.39c0,.9362-.2235,1.4525-.6456,1.4525-.695,0-.4929-.8728-.695-1.7214a2.8151,2.8151,0,0,0-2.3679-2.19c2.1228-.3807,3.087-1.0061,3.087-2.2777C742.768,257.6435,741.5146,256.68,739.2761,256.68Zm-1.2957,1.2474c0-.489.3591-.7338,1.0272-.7338a1.6868,1.6868,0,0,1,1.8362,1.7244c0,1.181-.8062,1.8487-2.2833,1.8487-.0639,0-.2418,0-.58-.0182Z" transform="translate(-95.0117 -251.8959)"/><rect class="b" x="93.7585" y="70.964" width="67.5386" height="15.7356"/><rect class="b" x="93.7585" y="1.3018" width="67.5386" height="15.7421"/><rect class="b" x="93.7585" y="36.0754" width="67.5386" height="15.7421"/><rect class="b" x="72.4013" y="1.1719" width="16.5458" height="85.6581"/><rect class="b" y="70.964" width="67.5385" height="15.7356"/><rect class="b" y="1.3018" width="67.5385" height="15.7421"/><rect class="b" y="36.0754" width="67.5385" height="15.7421"/></svg>